#!OML:ASF F:\VICON\USERDATA\INSTALL\rory3\rory3.ASF
:FULLY-SPECIFIED
:DEGREES
1040
root 15.7172 17.908 -9.63796 357.377 -50.1773 -353.468
lowerback 10.5625 1.33008 -4.48402
upperback 1.00505 1.24345 0.430593
thorax -4.98217 0.701636 2.79566
lowerneck -11.048 -5.07017 -13.0157
upperneck 39.2506 -8.38014 7.98645
head 17.1076 -4.70641 4.36208
rclavicle -1.18277e-014 9.54166e-015
rhumerus -33.3284 -11.6212 -75.7365
rradius 35.9973
rwrist 0.195263
rhand -15.442 8.24038
rfingers 7.12502
rthumb 10.7384 -21.4652
lclavicle -1.18277e-014 9.54166e-015
lhumerus -42.9718 12.4897 63.0272
lradius 33.8434
lwrist 0.455642
lhand -21.4981 28.0431
lfingers 7.12502
lthumb 4.89345 57.9666
rfemur -23.9204 -12.4019 18.778
rtibia 43.3609
rfoot -17.9722 -21.2714
rtoes 22.7587
lfemur 3.08486 -0.747512 -24.1532
ltibia 10.5327
lfoot -9.80149 8.00409
ltoes -16.431
1041
root 15.7051 17.9029 -9.62967 357.057 -51.1654 -353.103
lowerback 10.3502 1.29473 -4.52738
upperback 1.05461 1.19305 0.248956
thorax -4.80429 0.670886 2.64051
lowerneck -12.1601 -5.00424 -12.2827
upperneck 40.2207 -8.19585 7.30021
head 17.8244 -4.61557 3.96053
rclavicle -2.3556e-014 6.36111e-015
rhumerus -33.546 -11.6571 -76.004
rradius 36.0095
rwrist 0.0728149
rhand -15.7602 7.83198
rfingers 7.12502
rthumb 10.4315 -21.8892
lclavicle -2.3556e-014 6.36111e-015
lhumerus -43.0106 12.5553 62.6705
lradius 34.1478
lwrist 0.964174
lhand -22.2594 27.9171
lfingers 7.12502
lthumb 4.15824 57.8563
rfemur -23.9565 -13.2844 18.8153
rtibia 43.7649
rfoot -17.6933 -21.7408
rtoes 22.8106
lfemur 3.34182 -0.382006 -24.4216
ltibia 10.3205
lfoot -9.65794 8.64623
ltoes -15.2302
1042
root 15.6914 17.8986 -9.62119 356.737 -52.1613 -352.605
lowerback 10.1464 1.29011 -4.75916
upperback 0.953529 1.16494 0.148593
thorax -4.79702 0.662733 2.67196
lowerneck -12.26 -4.88875 -11.9039
upperneck 40.4192 -8.01765 6.94192
head 17.8864 -4.54204 3.75968
rclavicle 5.43676e-014 2.78299e-015
rhumerus -34.1664 -10.7155 -76.4182
rradius 36.5267
rwrist -0.876574
rhand -16.557 6.22104
rfingers 7.12502
rthumb 9.6628 -23.5373
lclavicle 5.43676e-014 2.78299e-015
lhumerus -43.1876 12.4963 62.43
lradius 34.3071
lwrist 0.797078
lhand -21.1976 28.4074
lfingers 7.12502
lthumb 5.18359 58.324
rfemur -24.0919 -13.909 18.7486
rtibia 44.1361
rfoot -17.2368 -22.1132
rtoes 22.3644
lfemur 3.50734 -0.122408 -24.7745
ltibia 10.0635
lfoot -9.46789 9.31435
ltoes -14.0225
1043
root 15.6772 17.8979 -9.6157 356.559 -53.0826 -352.369
lowerback 10.0807 1.27147 -4.88121
upperback 0.8699 1.12789 0.132532
thorax -4.84721 0.649717 2.7294
lowerneck -12.1063 -4.7894 -11.5284
upperneck 40.2327 -7.85184 6.60211
head 17.6612 -4.46352 3.55756
rclavicle 2.73329e-014 2.78299e-015
rhumerus -34.8767 -9.64831 -76.819
rradius 37.2279
rwrist -1.82284
rhand -17.077 5.08135
rfingers 7.12502
rthumb 9.16107 -24.6997
lclavicle 2.73329e-014 2.78299e-015
lhumerus -43.0336 12.3183 62.3728
lradius 34.2018
lwrist 0.817816
lhand -19.7847 28.9422
lfingers 7.12502
lthumb 6.54766 58.8209
rfemur -24.0866 -14.4399 18.8049
rtibia 44.4351
rfoot -16.914 -22.1929
rtoes 22.815
lfemur 3.71268 -0.0583953 -24.9581
ltibia 9.8642
lfoot -9.28581 10.0847
ltoes -13.7174
1044
root 15.661 17.9012 -9.60811 356.586 -53.8339 -352.549
lowerback 10.1552 1.18054 -4.75579
upperback 0.868753 1.02139 0.218202
thorax -4.88033 0.596191 2.76303
lowerneck -12.3041 -4.74143 -11.4856
upperneck 40.2431 -7.73334 6.48545
head 17.691 -4.42463 3.51277
rclavicle -1.64991e-014 -1.59028e-015
rhumerus -35.1941 -9.39236 -76.8768
rradius 37.264
rwrist -1.84443
rhand -17.1 5.11891
rfingers 7.12502
rthumb 9.13882 -24.6631
lclavicle -1.64991e-014 -1.59028e-015
lhumerus -42.8459 12.4078 62.3257
lradius 34.2463
lwrist 0.753335
lhand -18.9106 29.4325
lfingers 7.12502
lthumb 7.39142 59.2834
rfemur -23.7932 -15.0599 19.0284
rtibia 44.6214
rfoot -16.8706 -21.8932
rtoes 23.9985
lfemur 3.98616 -0.168929 -24.8749
ltibia 9.82474
lfoot -9.16612 10.9614
ltoes -13.5827
1045
root 15.6425 17.8992 -9.6015 356.971 -54.6381 -353.159
lowerback 10.1805 1.10473 -4.32352
upperback 0.874873 0.973993 0.321833
thorax -4.87818 0.564809 2.63449
lowerneck -12.5018 -4.72015 -11.5457
upperneck 40.3241 -7.68935 6.49759
head 17.7885 -4.41866 3.53506
rclavicle 6.5748e-014 -1.78906e-014
rhumerus -35.3374 -10.0131 -76.7339
rradius 36.8987
rwrist -1.1425
rhand -16.6665 5.50518
rfingers 7.12502
rthumb 9.55709 -24.2581
lclavicle 6.5748e-014 -1.78906e-014
lhumerus -42.623 12.3623 62.3299
lradius 34.3063
lwrist 0.817421
lhand -18.0117 31.6704
lfingers 7.12502
lthumb 8.25902 61.4889
rfemur -23.4315 -15.4321 19.5126
rtibia 44.6991
rfoot -16.9684 -21.4827
rtoes 24.0119
lfemur 4.20145 -0.242945 -24.5132
ltibia 9.89409
lfoot -9.07407 11.9164
ltoes -13.5227
1046
root 15.6207 17.8892 -9.59939 357.203 -55.598 -353.505
lowerback 10.0837 1.11271 -4.06934
upperback 0.876481 1.01974 0.355541
thorax -4.82192 0.581407 2.52086
lowerneck -12.5312 -4.69746 -11.535
upperneck 40.28 -7.68494 6.53904
head 17.771 -4.41407 3.5499
rclavicle 9.03476e-014 7.95139e-016
rhumerus -35.5131 -10.7887 -76.5665
rradius 36.5751
rwrist -0.715134
rhand -16.0609 6.09535
rfingers 7.12502
rthumb 10.1415 -23.6402
lclavicle 9.03476e-014 7.95139e-016
lhumerus -42.2449 12.0691 62.4463
lradius 34.1919
lwrist 1.20221
lhand -18.6056 33.2563
lfingers 7.12502
lthumb 7.68584 63.0967
rfemur -23.122 -15.4508 19.8661
rtibia 44.6655
rfoot -17.032 -21.1166
rtoes 21.1074
lfemur 4.34538 -0.155409 -24.3199
ltibia 10.0085
lfoot -9.03183 12.8245
ltoes -13.5107
1047
root 15.597 17.881 -9.59777 356.888 -56.5155 -353.115
lowerback 9.98115 1.10772 -4.35081
upperback 0.845398 0.986231 0.358404
thorax -4.79976 0.570858 2.68833
lowerneck -12.5678 -4.65006 -11.6794
upperneck 40.2017 -7.61553 6.64593
head 17.7403 -4.3975 3.63489
rclavicle 7.14134e-014 -7.15625e-015
rhumerus -35.6737 -11.2837 -76.3155
rradius 36.2506
rwrist -0.675997
rhand -15.4811 6.92181
rfingers 7.12502
rthumb 10.7007 -22.7857
lclavicle 7.14134e-014 -7.15625e-015
lhumerus -42.2072 12.1151 62.6232
lradius 34.2822
lwrist 1.51395
lhand -21.3987 31.4098
lfingers 7.12502
lthumb 4.98934 61.331
rfemur -22.8511 -15.4284 19.7283
rtibia 44.4975
rfoot -17.0484 -20.5505
rtoes 16.5352
lfemur 4.41195 -0.575968 -24.6477
ltibia 10.1626
lfoot -9.07128 14.0979
ltoes -12.5805
1048
root 15.5694 17.8759 -9.59562 356.64 -57.3385 -352.859
lowerback 10.0043 1.0453 -4.65215
upperback 0.770701 0.872664 0.458233
thorax -4.88852 0.525695 2.97863
lowerneck -12.5942 -4.55249 -11.7247
upperneck 40.1318 -7.42704 6.5762
head 17.6763 -4.34029 3.64183
rclavicle 7.99114e-014 7.95139e-015
rhumerus -35.9338 -11.3442 -76.0852
rradius 36.0159
rwrist -0.714642
rhand -15.0668 7.60884
rfingers 7.12502
rthumb 11.1003 -22.0776
lclavicle 7.99114e-014 7.95139e-015
lhumerus -42.7085 12.8015 62.6456
lradius 34.695
lwrist 0.890708
lhand -21.6107 29.2718
lfingers 7.12502
lthumb 4.78469 59.1978
rfemur -22.4217 -15.2265 19.5892
rtibia 44.1303
rfoot -17.4583 -19.6476
rtoes 13.9518
lfemur 4.46509 -1.14848 -24.9109
ltibia 10.4236
lfoot -9.08082 15.5126
ltoes -12.0232
1049
root 15.5388 17.8747 -9.5956 356.879 -58.135 -353.076
lowerback 9.84875 0.989753 -4.61614
upperback 0.745089 0.816118 0.557464
thorax -4.82432 0.497451 3.07151
lowerneck -12.6998 -4.49409 -11.6275
upperneck 40.0564 -7.34496 6.5422
head 17.6387 -4.29644 3.61858
rclavicle -6.44559e-014 8.34896e-015
rhumerus -36.152 -11.5644 -75.9422
rradius 35.8288
rwrist -0.794932
rhand -14.8166 8.10612
rfingers 7.12502
rthumb 11.3416 -21.5672
lclavicle -6.44559e-014 8.34896e-015
lhumerus -41.9675 12.5404 62.6967
lradius 34.2521
lwrist 0.820587
lhand -19.6351 29.0588
lfingers 7.12502
lthumb 6.69209 58.9331
rfemur -22.0127 -14.8304 19.7542
rtibia 43.5239
rfoot -17.6041 -18.6352
rtoes 12.6657
lfemur 4.33487 -1.79363 -24.9048
ltibia 10.9124
lfoot -9.23254 17.0215
ltoes -11.8994
1050
root 15.5088 17.8696 -9.60263 357.261 -58.8457 -353.373
lowerback 9.58659 0.942195 -4.51343
upperback 0.770842 0.78087 0.613384
thorax -4.6467 0.474187 3.07892
lowerneck -12.9559 -4.50323 -11.5341
upperneck 40.0481 -7.37736 6.56859
head 17.7011 -4.28946 3.60267
rclavicle -3.81667e-014 1.19271e-014
rhumerus -36.2445 -12.0103 -75.8285
rradius 35.6433
rwrist -0.683965
rhand -14.5259 8.2827
rfingers 7.12502
rthumb 11.622 -21.375
lclavicle -3.81667e-014 1.19271e-014
lhumerus -41.8267 12.6382 62.8039
lradius 34.5547
lwrist 0.556163
lhand -18.9379 29.1998
lfingers 7.12502
lthumb 7.36507 59.0516
rfemur -21.6977 -14.2875 20.0284
rtibia 42.723
rfoot -17.2077 -18.1407
rtoes 10.1329
lfemur 4.01274 -2.43638 -24.8333
ltibia 11.6124
lfoot -9.60918 18.3692
ltoes -11.1073
1051
root 15.4815 17.8629 -9.61516 357.909 -59.4947 -353.948
lowerback 9.39689 0.828821 -4.30392
upperback 0.760517 0.665902 0.695805
thorax -4.53961 0.412132 3.06348
lowerneck -13.2098 -4.47303 -11.4677
upperneck 40.0912 -7.35147 6.59954
head 17.7861 -4.26565 3.60662
rclavicle -7.15625e-015 -1.55052e-014
rhumerus -36.3522 -11.9798 -75.9304
rradius 35.5933
rwrist -0.694669
rhand -14.1739 8.09784
rfingers 7.12502
rthumb 11.9615 -21.5404
lclavicle -7.15625e-015 -1.55052e-014
lhumerus -41.8475 12.8235 62.9401
lradius 34.9737
lwrist 0.411803
lhand -19.0214 29.6004
lfingers 7.12502
lthumb 7.28445 59.4551
rfemur -21.4365 -13.657 20.4829
rtibia 41.8601
rfoot -16.9464 -18.3015
rtoes 6.70902
lfemur 3.57261 -3.0602 -24.5708
ltibia 12.4145
lfoot -10.0571 19.5635
ltoes -10.7739
